<svg xmlns="http://www.w3.org/2000/svg" width="114.576" height="40.88" viewBox="0 0 114.576 40.88"><path d="M27.776-5.992V0H3.864V-39.2H10.64V-5.992Zm5.376-26.32A3.662,3.662,0,0,1,30.3-33.488a3.868,3.868,0,0,1-1.12-2.856A3.868,3.868,0,0,1,30.3-39.2a3.868,3.868,0,0,1,2.856-1.12,4.116,4.116,0,0,1,2.856,1.12,3.868,3.868,0,0,1,1.12,2.856,3.868,3.868,0,0,1-1.12,2.856A3.888,3.888,0,0,1,33.152-32.312Zm3.192,3.528V0H29.96V-28.784ZM56.392.56q-6.1,0-9.464-4.144V0H40.6V-39.2h6.384v14.112a10.376,10.376,0,0,1,4.032-3.136,13.087,13.087,0,0,1,5.376-1.12A13.96,13.96,0,0,1,63.616-27.5a13.687,13.687,0,0,1,4.816,5.264,17.771,17.771,0,0,1,1.68,7.84,16.513,16.513,0,0,1-1.736,7.784A12.7,12.7,0,0,1,63.56-1.344,13.352,13.352,0,0,1,56.392.56ZM55.216-4.816A7.627,7.627,0,0,0,61.32-7.5a10.128,10.128,0,0,0,2.24-6.888,10.348,10.348,0,0,0-2.24-6.944,7.7,7.7,0,0,0-6.1-2.632,7.431,7.431,0,0,0-6.048,2.632,10.215,10.215,0,0,0-2.24,6.944A10.128,10.128,0,0,0,49.168-7.5,7.363,7.363,0,0,0,55.216-4.816Zm44.52-10.64q0,1.232-.112,2.688H77.9A9.341,9.341,0,0,0,80.36-7.112a7.571,7.571,0,0,0,5.6,2.128A7.726,7.726,0,0,0,90.384-6.16,5.344,5.344,0,0,0,92.568-9.3h6.776a10.2,10.2,0,0,1-2.184,5.04,12.229,12.229,0,0,1-4.7,3.528A16.689,16.689,0,0,1,85.848.56,14.752,14.752,0,0,1,78.176-1.4a12.762,12.762,0,0,1-5.152-5.376,16.477,16.477,0,0,1-1.792-7.672A15.861,15.861,0,0,1,73.08-22.12a13.319,13.319,0,0,1,5.152-5.32,14.9,14.9,0,0,1,7.672-1.9,14.3,14.3,0,0,1,7.224,1.792A13.563,13.563,0,0,1,98-22.568,14.436,14.436,0,0,1,99.736-15.456ZM85.848-23.8a7.388,7.388,0,0,0-4.984,1.68,8.106,8.106,0,0,0-2.688,4.48h14.9Q91.616-23.8,85.848-23.8ZM108.584,0H102.2V-28.784h6.384v4.144a7.374,7.374,0,0,1,3.64-3.3,15.154,15.154,0,0,1,5.32-.84h.9v6.048h-.616q-4.536,0-6.888,1.848-2.352,1.96-2.352,6.72Z" transform="translate(-3.864 40.32)" fill="#fff"/></svg>