<svg xmlns="http://www.w3.org/2000/svg" xmlns:xlink="http://www.w3.org/1999/xlink" width="149.999" height="149.996" viewBox="0 0 149.999 149.996"><defs><linearGradient id="a" x1="1" y1="1" x2="0" gradientUnits="objectBoundingBox"><stop offset="0" stop-color="#28c949"/><stop offset="1" stop-color="#00ffbf"/></linearGradient></defs><path d="M117.886,117.887H150v.238A32.111,32.111,0,0,1,117.886,150ZM78.591,150V117.887A32.112,32.112,0,0,1,110.7,150ZM39.3,117.887H71.407A32.109,32.109,0,0,1,39.3,150ZM0,150V117.887A32.112,32.112,0,0,1,32.112,150ZM117.886,110.7A32.115,32.115,0,0,1,150,78.592V110.7ZM78.591,78.592H110.7V110.7A32.112,32.112,0,0,1,78.591,78.592ZM39.3,110.7A32.112,32.112,0,0,1,71.407,78.592V110.7ZM0,78.592H32.112V110.7A32.111,32.111,0,0,1,0,78.592ZM117.886,39.3H150v.238a32.112,32.112,0,0,1-32.115,31.873ZM78.591,71.408V39.3A32.112,32.112,0,0,1,110.7,71.408ZM39.3,39.3H71.407A32.111,32.111,0,0,1,39.3,71.408ZM0,71.408V39.3A32.112,32.112,0,0,1,32.112,71.408ZM117.886,32.113A32.112,32.112,0,0,1,150,0V32.113ZM78.591,0H110.7V32.113A32.112,32.112,0,0,1,78.591,0ZM39.3,32.113A32.112,32.112,0,0,1,71.407,0V32.113ZM0,0H32.112V32.113A32.112,32.112,0,0,1,0,0Z" transform="translate(-0.001 -0.002)" fill="url(#a)"/></svg>