<svg xmlns="http://www.w3.org/2000/svg" xmlns:xlink="http://www.w3.org/1999/xlink" width="149.999" height="150" viewBox="0 0 149.999 150"><defs><linearGradient id="a" x1="1" y1="1" x2="0" gradientUnits="objectBoundingBox"><stop offset="0" stop-color="#ff4d4d"/><stop offset="1" stop-color="#f9cb28"/></linearGradient></defs><path d="M110.365,150a32.116,32.116,0,0,1-31.775-32.112h32.115V150Zm-78.594,0A32.114,32.114,0,0,1,0,117.888H32.111V150Zm86.116-32.112H150v.238A32.112,32.112,0,0,1,117.887,150Zm-78.593,0H71.408A32.11,32.11,0,0,1,39.295,150Zm78.593-7.183V78.592A32.112,32.112,0,0,1,150,110.468v.238Zm-39.3,0a32.113,32.113,0,0,1,32.115-32.114v32.114Zm-39.3,0V78.592a32.112,32.112,0,0,1,32.113,32.114ZM0,110.705A32.111,32.111,0,0,1,32.111,78.592v32.114ZM117.887,39.3H150v.238a32.114,32.114,0,0,1-32.113,31.875Zm-39.3,0h32.115V71.409A32.113,32.113,0,0,1,78.591,39.3Zm-39.3,0H71.408A32.112,32.112,0,0,1,39.295,71.409ZM0,39.3H32.111V71.409A32.11,32.11,0,0,1,0,39.3Zm117.886-7.184V0h.34A32.115,32.115,0,0,1,150,31.874v.238Zm-39.3,0A32.116,32.116,0,0,1,110.365,0h.34V32.112Zm-39.3,0V0h.34A32.115,32.115,0,0,1,71.408,32.112ZM0,32.112A32.112,32.112,0,0,1,31.771,0h.34V32.112Z" transform="translate(-0.002)" fill="url(#a)"/></svg>