<svg xmlns="http://www.w3.org/2000/svg" xmlns:xlink="http://www.w3.org/1999/xlink" width="149.999" height="150" viewBox="0 0 149.999 150"><defs><linearGradient id="a" x1="1" y1="1" x2="0" gradientUnits="objectBoundingBox"><stop offset="0" stop-color="#007cf0"/><stop offset="1" stop-color="#00dfd8"/></linearGradient></defs><path d="M149.658,150a32.114,32.114,0,0,1-31.773-32.112H150V150Zm-78.59,0a32.114,32.114,0,0,1-31.773-32.112H71.408V150Zm7.523,0V117.886A32.114,32.114,0,0,1,110.7,150ZM0,150V117.886A32.113,32.113,0,0,1,32.111,150Zm117.886-39.293V78.592A32.112,32.112,0,0,1,150,110.468v.238Zm-39.3-32.113H110.7v32.113A32.114,32.114,0,0,1,78.591,78.592Zm-39.3,32.113V78.592a32.112,32.112,0,0,1,32.113,32.113ZM0,78.592H32.111v32.113A32.112,32.112,0,0,1,0,78.592ZM117.885,39.3H150V71.41A32.112,32.112,0,0,1,117.885,39.3ZM78.591,71.41V39.3A32.111,32.111,0,0,1,110.7,71.41ZM39.295,39.3H71.408V71.41A32.112,32.112,0,0,1,39.295,39.3ZM0,39.3H32.111V71.41A32.111,32.111,0,0,1,0,39.3Zm117.886-7.183V0h.239A32.113,32.113,0,0,1,150,31.875v.238ZM78.591,0H110.7v32.11A32.112,32.112,0,0,1,78.591,0Zm-39.3,32.11V0h.239A32.113,32.113,0,0,1,71.408,32.113ZM0,0H32.111v32.11A32.11,32.11,0,0,1,0,0Z" transform="translate(-0.002)" fill="url(#a)"/></svg>